<svg height="512" viewBox="0 0 59 59" width="512" xmlns="http://www.w3.org/2000/svg"><g id="021---Gears-Cutting"><path id="Shape" d="m25.5 40c3.5898509 0 6.5-2.9101491 6.5-6.5s-2.9101491-6.5-6.5-6.5-6.5 2.9101491-6.5 6.5c.0055066 3.5875675 2.9124325 6.4944934 6.5 6.5zm0-11c2.4852814 0 4.5 2.0147186 4.5 4.5s-2.0147186 4.5-4.5 4.5-4.5-2.0147186-4.5-4.5c.0054995-2.4829999 2.0170001-4.4945005 4.5-4.5z"/><path id="Shape" d="m2.46 27.72c-1.44327758.263902-2.48392876 1.5329888-2.46 3v5.66c-.02392876 1.4670112 1.01672242 2.736098 2.46 3l5.85 1.06c.06.16.13.32.2.47l-3.39 4.79c-.82463171 1.1933871-.67727894 2.8058475.35 3.83l4 4c1.0266971 1.0241117 2.6389535 1.1672362 3.83.34l4.89-3.39.47.2 1.06 5.85c.263902 1.4432776 1.5329888 2.4839288 3 2.46h5.66c1.4670112.0239288 2.736098-1.0167224 3-2.46l1.06-5.85.47-.2 4.89 3.39c1.1933871.8246317 2.8058475.6772789 3.83-.35l3.22-3.21c.4031678-.3810765.4210764-1.0168321.04-1.42-.3810765-.4031678-1.0168321-.4210765-1.42-.04l-3.26 3.26c-.3395467.3398766-.8728023.390263-1.27.12l-4-2.78c2.3173905-1.3662856 4.304658-3.2272148 5.82-5.45.3092794-.4583963.1883963-1.0807205-.27-1.3899999-.4583964-.3092795-1.0807205-.1883964-1.39.2699999-4.7475063 6.9163834-13.929006 9.1695799-21.3389838 5.2367178-7.4099778-3.932862-10.68946557-12.799755-7.6219504-20.6077974 3.0675151-7.8080424 11.505489-12.0715421 19.6109342-9.9089204.3465476.0893164.7144206-.0130328.9650447-.2684936.250624-.2554609.3459235-.6252228.25-.9700001-.0959236-.3447772-.3684971-.6121899-.7150447-.7015063-3.0924542-.7998254-6.3375458-.7998254-9.43 0l.86-4.79c.0879673-.4810925.5109963-.8279763 1-.82h3.32c.5522847 0 1-.44771525 1-1s-.4477153-1-1-1h-3.33c-1.4670112-.02392876-2.736098 1.01672242-3 2.46l-1.06 5.85-.47.2-4.84-3.44c-1.1933871-.8246317-2.8058475-.6772789-3.83.35l-4 4c-1.02411165 1.0266971-1.16723624 2.6389535-.34 3.83l3.39 4.89c-.07.15-.14.31-.2.47zm-.46 8.61v-5.66c-.00797625-.4890037.33890747-.9120327.82-1l4.78-.86c-.80008914 3.0687065-.80008914 6.2912935 0 9.36l-4.78-.86c-.47361541-.086663-.81823401-.4985242-.82-.98zm28.18 15.07-.86 4.78c-.0879673.4810925-.5109963.8279763-1 .82h-5.65c-.4890037.0079763-.9120327-.3389075-1-.82l-.86-4.78c3.0712349.8067732 6.2987651.8067732 9.37 0zm-14-1.93-4 2.77c-.3948721.2728749-.9279261.2267048-1.27-.11l-4-4c-.33987661-.3395467-.39026297-.8728023-.12-1.27l2.77-4c1.6022277 2.7320237 3.8779763 5.0077723 6.61 6.61zm-9.31-30.58 4-4c.3395467-.3398766.8728023-.390263 1.27-.12l4 2.77c-2.7467433 1.6064953-5.0335047 3.8932567-6.64 6.64l-2.77-4c-.27651426-.4060192-.21717873-.9527537.14-1.29z"/><path id="Shape" d="m57 0h-26c-1.1045695 0-2 .8954305-2 2v9c-.0091443.7112277.3756548 1.369234 1 1.71.4033219.23962.8736926.3414166 1.34.29 2.87 7.19 2.21 5.52 3.23 8.06-.912102.2007763-1.5638184 1.0060819-1.57 1.94v3c0 1.1045695.8954305 2 2 2h1v3c0 1.1045695.8954305 2 2 2h1v6c0 .3147573.1481942.6111456.4.8l3.6 2.7v3.5c0 .5522847.4477153 1 1 1s1-.4477153 1-1v-3.5l3.6-2.7c.2518058-.1888544.4-.4852427.4-.8v-6h1c1.1045695 0 2-.8954305 2-2v-3h1c1.1045695 0 2-.8954305 2-2v-3c-.0040468-.927942-.645841-1.7312199-1.55-1.94l3.23-8.06h.32c1.1045695 0 2-.8954305 2-2v-9c0-1.1045695-.8954305-2-2-2zm-10 38.5-3 2.25-3-2.25v-5.5h6zm6-12.5h-9c-.5522847 0-1 .4477153-1 1s.4477153 1 1 1h6v3h-12v-3h2c.5522847 0 1-.4477153 1-1s-.4477153-1-1-1h-5v-3h18zm-1.68-5h-14.64l-3.2-8h21zm5.68-10h-26v-9h26z"/><path id="Shape" d="m34 6h2c.5522847 0 1-.44771525 1-1s-.4477153-1-1-1h-2c-.5522847 0-1 .44771525-1 1s.4477153 1 1 1z"/><path id="Shape" d="m40 6h14c.5522847 0 1-.44771525 1-1s-.4477153-1-1-1h-14c-.5522847 0-1 .44771525-1 1s.4477153 1 1 1z"/><path id="Shape" d="m19.89 22.55c-.2495756-.490313-.8483464-.6869243-1.34-.44-4.22 2.11-6.55 6.33-6.55 11.89 0 .5522847.4477153 1 1 1s1-.4477153 1-1c0-4.76 1.93-8.35 5.45-10.11.490313-.2495756.6869243-.8483464.44-1.34z"/><circle id="Oval" cx="22" cy="21" r="1"/></g></svg>