<svg id="Capa_1" enable-background="new 0 0 512 512" height="512" viewBox="0 0 512 512" width="512" xmlns="http://www.w3.org/2000/svg"><g><path d="m236.271 221.451h28.58c4.142 0 7.5-3.358 7.5-7.5s-3.358-7.5-7.5-7.5h-28.58c-4.142 0-7.5 3.358-7.5 7.5s3.357 7.5 7.5 7.5z"/><path d="m213.448 239.882c0 4.142 3.358 7.5 7.5 7.5h59.226c4.142 0 7.5-3.358 7.5-7.5s-3.358-7.5-7.5-7.5h-59.226c-4.142 0-7.5 3.358-7.5 7.5z"/><path d="m264.851 258.313h-28.581c-4.142 0-7.5 3.358-7.5 7.5s3.358 7.5 7.5 7.5h28.582c4.142 0 7.5-3.358 7.5-7.5-.001-4.143-3.359-7.5-7.501-7.5z"/><path d="m348.044 497c-4.142 0-7.5 3.358-7.5 7.5s3.358 7.5 7.5 7.5h53.67c4.142 0 7.5-3.358 7.5-7.5s-3.358-7.5-7.5-7.5h-3.709v-127.191c3.527-.612 6.209-3.687 6.209-7.389s-2.682-6.777-6.209-7.389v-38.458c0-2.337-.877-4.565-2.47-6.274l-18.98-20.373c-1.735-1.863-4.19-2.932-6.737-2.932h-37.038l-2.396-13.673c-1.298-7.409-6.943-13.086-14.045-14.606l29.158-29.158c3.588 1.585 7.885.871 10.76-2.004l15.028-15.028c3.771-3.771 3.772-9.908 0-13.682l-34.772-34.772c-3.771-3.772-9.91-3.772-13.682 0l-15.028 15.028c-2.904 2.904-3.572 7.21-2.004 10.759l-8.808 8.808c-1.6-1.801-3.304-3.508-5.101-5.113l43.107-183.047c1.267-5.371-2.81-10.506-8.318-10.506h-152.238c-5.527 0-9.579 5.156-8.318 10.505l29.061 123.404c.95 4.032 4.988 6.53 9.02 5.581 4.032-.95 6.531-4.988 5.581-9.02l-27.193-115.47h21.6v7.429c0 4.142 3.358 7.5 7.5 7.5s7.5-3.358 7.5-7.5v-7.429h62.736v7.429c0 4.142 3.358 7.5 7.5 7.5s7.5-3.358 7.5-7.5v-7.429h21.6l-39.911 169.475c-17.559-8.928-38.487-8.963-56.115 0l-4.359-18.513c-.95-4.032-4.988-6.53-9.02-5.581s-6.53 4.987-5.581 9.02l4.578 19.439h-12.674c-29.394 0-53.307 23.913-53.307 53.307v44.849c-2.531.012-4.97 1.078-6.693 2.929l-18.986 20.378c-1.591 1.709-2.467 3.937-2.467 6.271v38.458c-3.527.612-6.209 3.687-6.209 7.389s2.682 6.777 6.209 7.389v72.297c0 4.142 3.358 7.5 7.5 7.5s7.5-3.358 7.5-7.5v-72.187h16.252v127.08h-16.252v-19.894c0-4.142-3.358-7.5-7.5-7.5s-7.5 3.358-7.5 7.5v19.894h-3.709c-4.142 0-7.5 3.358-7.5 7.5s3.358 7.5 7.5 7.5h53.67c4.142 0 7.5-3.358 7.5-7.5s-3.358-7.5-7.5-7.5h-3.709v-127.191c3.527-.612 6.209-3.687 6.209-7.389s-2.682-6.777-6.209-7.389v-10.221h52.73l10.239 68.396c.636 4.239 4.209 7.316 8.495 7.316h48.576c4.286 0 7.859-3.077 8.496-7.318l2.513-16.787c.613-4.096-2.21-7.915-6.307-8.528-4.091-.608-7.915 2.21-8.528 6.307l-1.695 11.326h-37.533l-9.089-60.711h55.71l-1.948 13.011c-.613 4.096 2.21 7.915 6.307 8.528 4.112.613 7.916-2.224 8.528-6.307l2.28-15.231h52.73v10.221c-3.527.612-6.209 3.687-6.209 7.389s2.682 6.777 6.209 7.389v127.189zm-45.155-223.687h9.628c1.528 0 2.829 1.093 3.093 2.598l1.942 11.084h-26.557c4.596-3.951 8.61-8.561 11.894-13.682zm26.783-94.87 27.241 27.241-7.497 7.497-27.241-27.241zm-13.726 22.481 18.486 18.486-21.773 21.773c.217-10.541-2.206-20.78-7.005-29.966zm-18.273 38.958c0 25.978-21.134 47.113-47.112 47.113s-47.113-21.135-47.113-47.113 21.135-47.112 47.113-47.112 47.112 21.134 47.112 47.112zm-87.547 47.113h-26.557l1.943-11.084c.264-1.505 1.564-2.598 3.093-2.598h9.627c3.283 5.121 7.298 9.731 11.894 13.682zm-14.679-83.155h4.554c-11.734 16.413-14.292 36.712-8.762 54.473h-2.634c-8.83 0-16.345 6.312-17.868 15.009l-2.396 13.673h-11.2v-44.848c-.001-21.123 17.183-38.307 38.306-38.307zm-41.174 125.971c-4.977 0-9.026 4.049-9.026 9.026v16.084h-16.252v-36.066l15.708-16.86h29.812c.121.002.161.002.263 0h192.518l15.708 16.86v36.065h-16.252v-16.084c0-4.977-4.049-9.026-9.026-9.026-53.313.001-172.738.001-203.453.001zm212.48 40.109h16.252v127.08h-16.252z"/></g></svg>