<?xml version="1.0" encoding="iso-8859-1"?>
<!-- Generator: Adobe Illustrator 19.0.0, SVG Export Plug-In . SVG Version: 6.00 Build 0)  -->
<svg version="1.1" id="Capa_1" xmlns="http://www.w3.org/2000/svg" xmlns:xlink="http://www.w3.org/1999/xlink" x="0px" y="0px"
	 viewBox="0 0 512 512" style="enable-background:new 0 0 512 512;" xml:space="preserve">
<g>
	<g>
		<path d="M444.379,497h-16.548V231.952c0-4.142-3.358-7.5-7.5-7.5h-0.924c-0.822-3.525-2.86-6.717-5.799-8.921l-57.922-43.442
			v-68.396c0-4.142-3.358-7.5-7.5-7.5h-0.924c-0.822-3.525-2.86-6.717-5.799-8.921l-89.781-67.335
			c-0.129-0.097-0.207-0.251-0.207-0.413v-4.008C251.476,6.96,244.515,0,235.959,0h-32.064c-8.556,0-15.516,6.96-15.516,15.516
			v4.008c0,0.161-0.077,0.315-0.207,0.413l-89.78,67.335c-2.939,2.204-4.977,5.396-5.799,8.921h-0.924c-4.142,0-7.5,3.358-7.5,7.5
			V497H67.621c-4.142,0-7.5,3.358-7.5,7.5c0,4.142,3.358,7.5,7.5,7.5h376.758c4.142,0,7.5-3.358,7.5-7.5
			C451.879,500.358,448.521,497,444.379,497z M164.739,224.451h-0.924c-4.142,0-7.5,3.358-7.5,7.5V497H99.169V111.193h160.839
			c4.142,0,7.5-3.357,7.5-7.5c0-4.142-3.358-7.5-7.5-7.5H111.497l85.675-64.256c3.886-2.915,6.207-7.555,6.207-12.413v-4.008
			c0-0.285,0.231-0.516,0.516-0.516h32.064c0.285,0,0.516,0.231,0.516,0.516v4.008c0,4.857,2.32,9.498,6.207,12.413l85.676,64.256
			H292.07c-4.142,0-7.5,3.358-7.5,7.5c0,4.143,3.358,7.5,7.5,7.5h48.615v49.646l-16.858-12.644
			c-0.129-0.097-0.206-0.251-0.206-0.413v-4.008c0-8.556-6.96-15.517-15.516-15.517h-32.064c-8.556,0-15.516,6.961-15.516,15.517
			v4.008c0,0.162-0.077,0.315-0.207,0.413l-89.78,67.335C167.599,217.734,165.56,220.926,164.739,224.451z M188.378,497h-17.064
			V239.452h17.064V497z M236.476,497h-33.097v-33.097h33.097V497z M236.476,448.903h-33.097v-17.064h33.097V448.903z
			 M236.476,416.838h-33.097v-17.064h33.097V416.838z M236.476,384.774h-33.097V367.71h33.097V384.774z M236.476,352.71h-33.097
			v-17.064h33.097V352.71z M236.476,320.646h-33.097v-17.065h33.097V320.646z M236.476,288.581h-33.097v-17.064h33.097V288.581z
			 M236.476,256.516h-33.097v-17.064h33.097V256.516z M412.83,497H251.476V239.452h88.691c4.142,0,7.5-3.358,7.5-7.5
			c0-4.142-3.358-7.5-7.5-7.5H183.643l85.675-64.256c3.887-2.914,6.207-7.555,6.207-12.413v-4.008c0-0.285,0.231-0.517,0.516-0.517
			h32.064c0.285,0,0.516,0.231,0.516,0.517v4.008c0,4.858,2.32,9.499,6.207,12.413l85.675,64.256h-28.27c-4.142,0-7.5,3.358-7.5,7.5
			c0,4.142,3.357,7.5,7.499,7.5h40.598V497z"/>
	</g>
</g>
<g>
	<g>
		<path d="M388.266,256.516c-4.142,0-7.5,3.358-7.5,7.5v16.032c0,4.142,3.358,7.5,7.5,7.5c4.142,0,7.5-3.358,7.5-7.5v-16.032
			C395.766,259.874,392.408,256.516,388.266,256.516z"/>
	</g>
</g>
<g>
	<g>
		<path d="M388.266,304.612c-4.142,0-7.5,3.358-7.5,7.5v80.162c0,4.142,3.358,7.5,7.5,7.5c4.142,0,7.5-3.358,7.5-7.5v-80.162
			C395.766,307.97,392.408,304.612,388.266,304.612z"/>
	</g>
</g>
<g>
</g>
<g>
</g>
<g>
</g>
<g>
</g>
<g>
</g>
<g>
</g>
<g>
</g>
<g>
</g>
<g>
</g>
<g>
</g>
<g>
</g>
<g>
</g>
<g>
</g>
<g>
</g>
<g>
</g>
</svg>
